<svg width="53" height="31" viewBox="0 0 53 31" fill="none" xmlns="http://www.w3.org/2000/svg">
<path d="M18.8619 15.3641C17.6845 15.3991 17.7248 14.0629 17.3474 11.0554C16.7082 5.95487 17.1118 6.55993 18.6955 6.50319C19.3477 6.48407 20.442 5.26851 21.9987 5.9499C24.7659 7.13537 24.7459 13.5894 20.0203 12.5676C18.7797 12.2993 20.5009 15.308 18.8619 15.3641ZM20.3362 7.55281C17.7654 7.63031 19.9526 12.7974 21.3757 10.5396C22.0021 9.56796 21.5608 7.51293 20.3362 7.55281Z" fill="#014E72"/>
<path d="M27.8648 14.5698C26.3401 14.6178 27.8326 12.9965 28.1003 12.1535C28.2456 11.6869 27.3056 11.9818 26.4821 11.4922C25.2418 10.7612 24.0714 6.58011 25.1501 5.93717C26.7624 4.97588 26.6991 9.85614 27.9178 9.81797C29.3961 9.77145 28.425 6.36214 29.3705 5.67852C31.8163 3.92754 31.0538 14.4762 27.8648 14.5698Z" fill="#EE765E"/>
<path d="M37.2777 12.0189C36.8814 12.0312 36.4392 11.7618 36.3444 11.1336C36.3034 10.8584 36.2158 8.71588 36.1169 8.244C35.9891 7.64389 35.6659 7.3262 35.2969 7.43931C35.1321 7.48831 34.8058 7.70658 34.4617 8.61211C34.3781 8.83184 34.0453 10.6624 33.9794 10.8886C33.7848 11.5471 33.5557 11.8993 33.2358 12.0312C33.1401 12.0708 33.0396 12.0931 32.9375 12.0953C32.5975 12.1061 32.3097 11.9015 32.1763 11.6948C31.964 11.3691 31.9705 10.8425 32.0155 10.4578C32.0211 10.4117 32.1738 8.19069 32.2044 7.98753C32.3515 7.02004 32.5649 6.57668 32.9207 6.53305C33.4021 6.47397 33.5493 6.30106 33.7728 6.16562C33.8435 6.12315 34.846 5.54034 35.3693 5.46974C36.1571 5.36455 36.8074 5.70672 37.2021 5.99129C37.4956 6.20671 37.6306 6.29964 37.8267 6.30829C37.9731 6.30395 38.6917 5.8256 38.797 5.76291C39.17 5.53888 39.6114 5.41355 40.0744 5.39983C40.5599 5.38473 40.9595 5.49495 41.1717 5.60372C41.6275 5.83497 42.1275 6.52079 42.2417 7.07119C42.3309 7.50991 42.6613 10.1271 42.6669 10.6624C42.6741 11.158 42.601 11.7416 41.9716 11.8576C41.564 11.9361 40.9812 11.645 40.8148 10.9887C40.7424 10.6991 40.457 8.66112 40.457 8.66112C40.4184 8.39673 40.1837 7.66192 39.7754 7.63744H39.7737C39.4884 7.64678 39.162 8.00482 38.9876 8.33766C38.8597 8.58045 38.4345 10.8202 38.3412 11.0406C38.1057 11.5853 37.9642 11.9138 37.3926 12.0074C37.3541 12.0146 37.3155 12.0182 37.2777 12.0189Z" fill="#014E72"/>
<path d="M8.91144 15.055H8.91062C8.08505 15.0802 7.72248 14.4254 7.65175 14.1703L7.66381 14.1675C7.61235 14.0479 7.54805 13.8498 7.44272 13.5241C7.34867 13.4557 7.19998 13.3721 7.03435 13.3693C6.49578 13.3613 5.27628 13.1373 4.51019 12.8621C2.63714 12.1856 2.17975 11.6886 1.77536 11.2491C1.70786 11.1764 1.64194 11.1043 1.56959 11.0337C0.762498 10.2427 0.392682 9.15778 0.555092 8.05627C0.714248 6.96918 1.39834 6.0701 2.0278 5.68615C1.95223 5.64003 1.88228 5.58168 1.82198 5.51035C1.54223 5.18835 1.47391 4.31234 2.486 3.34265C3.35017 2.5113 4.14282 2.17992 4.72081 1.93714C5.0118 1.81611 5.31969 1.74193 5.61711 1.6706C5.82935 1.61871 6.044 1.56759 6.25702 1.49699C6.64931 1.36947 6.72325 1.00135 6.73693 0.849349L6.76266 0.765063C7.01428 0.306166 7.372 0.0367063 7.76991 0.00503579L7.84389 0.000696051C8.47652 -0.018022 8.80533 0.34433 8.89535 0.65914C8.98215 0.960997 9.29248 1.14613 9.90341 1.2607L10.2973 1.33561C12.1679 1.68716 12.4959 1.87449 13.5812 2.49619L13.9405 2.7015C15.107 3.36137 15.8128 5.04857 15.9719 5.76178C16.1182 6.42888 16.2453 7.48642 15.6745 8.96976C15.1769 10.2636 14.3851 10.9465 13.8609 11.399C12.7017 12.3982 10.9806 12.9132 10.4139 13.0292C10.2186 13.0681 10.1526 13.2562 10.0586 14.0327C10.0192 14.3627 9.94604 14.9772 9.01994 15.0478C8.98782 15.0514 8.94922 15.0543 8.91144 15.055ZM3.23443 5.33313C3.60099 5.33313 3.81804 5.4592 3.91771 5.53702C4.11791 5.69552 4.16851 5.94046 4.0576 6.21061C4.02462 6.29489 3.93542 6.38422 3.79394 6.52254C3.53267 6.77828 3.36948 7.31066 3.23122 7.84735C3.08973 8.39199 3.30597 9.31843 3.69345 9.83206C4.06322 10.3212 4.24974 10.4804 4.95395 10.7484C5.61149 10.9977 6.44432 11.0726 6.81572 11.0618L6.88888 11.0575C7.06331 11.0438 7.19274 10.9955 7.27233 10.9127C7.36557 10.8162 7.40095 10.6656 7.37604 10.4668C7.32779 10.0669 7.31012 9.51006 7.29082 8.92149C7.27632 8.46474 7.26106 7.98928 7.22971 7.55921C7.1622 6.57873 6.94271 4.57599 6.8704 4.20065C6.80688 3.87073 6.71682 3.82604 6.63002 3.78284C6.53597 3.73529 6.39126 3.71223 6.21118 3.718C5.92101 3.72738 5.64044 3.80229 5.52065 3.84622C4.70794 4.13439 4.38316 4.33321 4.20951 4.45785C3.7658 4.77773 3.54232 4.99238 3.23443 5.33313ZM10.1599 3.57679C9.9171 3.58471 9.84878 3.68052 9.70005 3.97519C9.54089 4.28351 9.50067 5.27694 9.57705 6.92667L9.58026 6.99654C9.6108 7.66797 9.81661 9.68366 9.92996 10.01C10.0554 10.3652 10.1124 10.528 10.4935 10.6144C10.7716 10.6771 11.1406 10.5474 11.6527 10.2096C12.7757 9.47186 13.3215 8.51229 13.4791 7.00088C13.5844 5.97501 12.9164 4.85263 12.2098 4.3606C11.3488 3.7605 10.8118 3.61495 10.2692 3.57967C10.2282 3.57679 10.1928 3.57606 10.1599 3.57679Z" fill="#FCBD14"/>
<path d="M43.1292 28.3156C41.185 27.6087 43.7104 26.2001 44.555 24.4638C44.9978 23.5535 44.7628 23.4336 44.0381 23.2103C41.7652 22.508 41.2402 20.9132 42.0549 18.8404C43.545 15.0036 50.247 14.7831 50.7779 18.1675C50.7848 18.2124 51.9754 24.9312 52.0102 25.2995C52.17 26.9565 50.3835 26.863 50.7169 26.8506C48.629 26.9284 49.6614 23.3488 48.4866 23.3909C46.3563 23.4735 45.9886 29.3551 43.1292 28.3156ZM46.0034 17.865C43.9496 18.4492 43.7731 22.6419 47.1893 21.4936C50.1661 20.493 48.7556 17.0792 46.0034 17.865Z" fill="#014E72"/>
<path d="M38.6025 28.6944C36.2515 28.774 38.2295 24.0248 37.1681 23.2307C36.421 22.6626 32.7538 22.9308 32.4302 23.0608C30.5048 23.8341 32.0534 28.5526 29.9344 28.6277C28.1201 28.6819 28.639 26.261 29.0332 21.993C29.3458 18.6079 28.9472 16.1116 30.8398 15.9635C32.793 15.855 30.9431 20.2122 32.095 20.7256C33.0432 21.1522 35.0998 21.0705 36.267 20.8022C37.5312 20.5097 37.8135 19.3005 37.8135 18.1588C37.8135 15.6371 38.4823 15.3551 38.789 15.2854C40.1281 14.9811 40.2477 17.5006 40.1238 19.4623C39.5805 28.1309 40.1934 28.6381 38.6025 28.6944Z" fill="#014E72"/>
<path d="M18.0666 28.6025C15.4106 28.6958 19.1483 25.2218 19.4275 24.8715C20.2181 23.8802 19.9238 23.842 19.2571 23.4718C17.1919 22.3267 17.1898 20.649 18.5087 18.8316C21.0111 15.3493 27.5735 16.3917 27.1729 19.8387C27.1678 19.8837 26.5177 26.6387 26.4478 27.0291C26.0999 29.0044 23.6998 28.5549 23.9068 26.7691C24.3327 23.1448 22.3186 24.8348 19.9058 27.7329C19.5894 28.1104 19.068 28.5659 18.0666 28.6025ZM21.9573 18.9375C19.4935 19.4899 20.1284 22.8405 22.7427 22.4452C25.6113 22.0122 24.5516 18.3575 21.9573 18.9375Z" fill="#014E72"/>
<path d="M6.1527 30.6417C4.35257 30.7063 5.54926 28.4552 3.12127 18.4171C2.55549 16.0929 4.84254 15.6293 5.37936 17.5152C6.11769 20.1051 6.51014 21.8208 7.05548 21.9817C8.09676 22.2881 10.2622 21.8596 11.4125 21.4046C13.6458 20.5233 11.4796 15.257 13.292 14.9167C14.8246 14.6186 14.8497 16.712 15.5694 22.6999C16.0529 26.7752 17.4568 29.361 15.3033 29.4335C12.8353 29.4932 14.6895 23.532 11.7734 23.6372C11.2674 23.6566 10.9162 23.7431 10.1536 23.8727C8.70142 24.1245 7.29456 24.244 7.23874 25.6363C7.18524 27.2189 8.01598 30.5799 6.1527 30.6417Z" fill="#014E72"/>
<path d="M48.0615 5.37921C46.0936 4.92392 44.3564 5.99587 43.7318 8.28675C43.1088 10.5769 43.9697 12.0408 45.9609 12.4673C47.9514 12.8938 50.0607 11.5884 50.5069 9.21823C50.953 6.84883 49.5374 5.72069 48.0615 5.37921ZM48.494 9.21754C48.2271 10.3363 47.2761 11.0286 46.4248 10.7585C45.5727 10.4876 45.3146 9.80323 45.6715 8.63254C46.0285 7.46047 46.6289 6.90068 47.6298 7.02317C48.5832 7.14058 48.7617 8.09946 48.494 9.21754Z" fill="#4AAE42"/>
</svg>
